<?xml version="1.0" encoding="UTF-8"?>
<!DOCTYPE svg PUBLIC "-//W3C//DTD SVG 1.1//EN" "http://www.w3.org/Graphics/SVG/1.1/DTD/svg11.dtd">
<svg xmlns="http://www.w3.org/2000/svg" version="1.1" width="250px" height="167px" style="shape-rendering:geometricPrecision; text-rendering:geometricPrecision; image-rendering:optimizeQuality; fill-rule:evenodd; clip-rule:evenodd" xmlns:xlink="http://www.w3.org/1999/xlink">
<g><path style="opacity:0.952" fill="#ff6a6a" d="M 98.5,3.5 C 102.007,2.99353 105.174,3.66019 108,5.5C 108.098,12.86 107.598,20.1934 106.5,27.5C 103.5,27.5 100.5,27.5 97.5,27.5C 97.4437,21.2714 96.777,15.1047 95.5,9C 95.6132,6.60127 96.6132,4.76794 98.5,3.5 Z"/></g>
<g><path style="opacity:0.928" fill="#ff6a6a" d="M 109.5,4.5 C 116.619,4.3937 122.952,6.56037 128.5,11C 132.079,15.4906 135.412,20.1573 138.5,25C 143.541,24.7169 148.541,23.8836 153.5,22.5C 160.093,22.6691 162.593,26.0024 161,32.5C 150.137,51.056 138.637,69.2227 126.5,87C 127.448,87.4828 128.448,87.6495 129.5,87.5C 128.167,90.1667 128.167,92.8333 129.5,95.5C 117.167,95.5 104.833,95.5 92.5,95.5C 94.0078,92.8599 93.6744,90.5266 91.5,88.5C 97.7985,87.5037 104.132,87.1703 110.5,87.5C 110.667,65.1642 110.5,42.8308 110,20.5C 109.667,20.8333 109.333,21.1667 109,21.5C 108.373,17.2172 108.873,13.0506 110.5,9C 109.852,7.56025 109.519,6.06025 109.5,4.5 Z M 112.5,18.5 C 113.833,18.5 115.167,18.5 116.5,18.5C 116.667,38.8361 116.5,59.1694 116,79.5C 115.385,81.1161 114.385,82.4495 113,83.5C 112.5,61.8359 112.333,40.1692 112.5,18.5 Z M 118.5,19.5 C 119.496,19.4142 120.329,19.7476 121,20.5C 121.667,38.1667 121.667,55.8333 121,73.5C 120.085,74.3279 119.419,75.3279 119,76.5C 118.5,57.5029 118.333,38.5029 118.5,19.5 Z M 124.5,23.5 C 125.458,23.9528 126.292,24.6195 127,25.5C 127.667,39.1667 127.667,52.8333 127,66.5C 126.333,67.1667 125.667,67.8333 125,68.5C 124.5,53.5037 124.333,38.5037 124.5,23.5 Z M 153.5,28.5 C 155.859,29.3887 156.025,30.722 154,32.5C 153.51,31.2068 153.343,29.8734 153.5,28.5 Z M 130.5,29.5 C 131.496,29.4142 132.329,29.7476 133,30.5C 133.667,39.8333 133.667,49.1667 133,58.5C 132.085,59.3279 131.419,60.3279 131,61.5C 130.5,50.8385 130.333,40.1719 130.5,29.5 Z M 147.5,29.5 C 148.5,29.5 149.5,29.5 150.5,29.5C 151.12,33.3017 150.286,36.635 148,39.5C 147.502,36.1832 147.335,32.8499 147.5,29.5 Z M 144.5,30.5 C 145.647,34.6463 145.814,38.9796 145,43.5C 144,44.8333 143,46.1667 142,47.5C 141.501,42.1771 141.334,36.8437 141.5,31.5C 142.791,31.7373 143.791,31.404 144.5,30.5 Z M 135.5,31.5 C 136.833,31.5 138.167,31.5 139.5,31.5C 139.666,38.175 139.5,44.8417 139,51.5C 138,52.5 137,53.5 136,54.5C 135.5,46.8406 135.334,39.1739 135.5,31.5 Z"/></g>
<g><path style="opacity:0.974" fill="#ff6a6a" d="M 98.5,28.5 C 101.167,28.5 103.833,28.5 106.5,28.5C 105.577,41.4701 105.244,54.4701 105.5,67.5C 103.5,67.5 101.5,67.5 99.5,67.5C 99.6868,54.48 99.3535,41.48 98.5,28.5 Z"/></g>
<g><path style="opacity:0.927" fill="#ff6a6a" d="M 99.5,69.5 C 101.792,69.2436 103.959,69.5769 106,70.5C 106.977,75.7926 107.477,81.1259 107.5,86.5C 104.167,86.5 100.833,86.5 97.5,86.5C 97.8408,80.7506 98.5075,75.0839 99.5,69.5 Z"/></g>
<g><path style="opacity:0.946" fill="#ff6a6a" d="M 25.5,100.5 C 33.023,99.927 40.3563,100.76 47.5,103C 55.8568,112.191 55.1901,120.858 45.5,129C 41.4175,131.373 37.0842,133.206 32.5,134.5C 35.9375,143.258 40.6042,151.258 46.5,158.5C 43.3312,162.929 39.4979,163.596 35,160.5C 30.8597,152.246 28.0263,143.579 26.5,134.5C 24.712,134.215 23.0453,134.548 21.5,135.5C 17.7672,144.366 14.4339,153.366 11.5,162.5C 7.5865,161.55 4.91984,159.217 3.5,155.5C 9.98819,141.202 15.9882,126.702 21.5,112C 21.1667,111.5 20.8333,111 20.5,110.5C 17.3388,111.913 14.3388,113.58 11.5,115.5C 8.97283,113.623 7.30617,111.123 6.5,108C 7.44402,106.523 8.77735,105.523 10.5,105C 15.5351,103.151 20.5351,101.651 25.5,100.5 Z M 35.5,106.5 C 40.6056,105.925 45.1056,107.259 49,110.5C 50.4238,117.759 47.5905,122.592 40.5,125C 35.6973,127.2 30.6973,127.867 25.5,127C 28.7164,120.068 32.0497,113.235 35.5,106.5 Z"/></g>
<g><path style="opacity:0.944" fill="#ff6a6a" d="M 97.5,100.5 C 127.108,98.2486 138.274,111.249 131,139.5C 122.563,157.665 108.73,164.499 89.5,160C 86.0933,158.261 83.76,155.594 82.5,152C 88.3676,137.395 94.0342,122.728 99.5,108C 96.3357,108.121 93.8357,109.621 92,112.5C 90.148,115.711 88.4814,119.044 87,122.5C 81.0623,119.347 80.0623,115.013 84,109.5C 87.8258,105.348 92.3258,102.348 97.5,100.5 Z M 105.5,104.5 C 122.353,103.853 129.187,111.853 126,128.5C 121.471,146.722 109.971,155.222 91.5,154C 96.8076,138.718 103.474,124.051 111.5,110C 109.163,108.366 107.163,106.533 105.5,104.5 Z"/></g>
<g><path style="opacity:0.936" fill="#ff6a6a" d="M 144.5,100.5 C 147.5,100.5 150.5,100.5 153.5,100.5C 153.789,110.321 155.956,119.654 160,128.5C 167.496,120.186 173.496,110.853 178,100.5C 180.781,100.895 182.947,102.228 184.5,104.5C 176.087,114.745 168.254,125.412 161,136.5C 158.42,144.649 156.92,152.983 156.5,161.5C 151.954,161.732 147.621,160.899 143.5,159C 147.085,151.249 150.085,143.249 152.5,135C 149.43,123.615 145.096,112.781 139.5,102.5C 141.291,101.83 142.958,101.163 144.5,100.5 Z"/></g>
<g><path style="opacity:0.95" fill="#ff6a6a" d="M 204.5,100.5 C 209.635,100.144 213.635,101.977 216.5,106C 212.477,116.595 209.644,127.428 208,138.5C 214.798,125.06 222.965,112.56 232.5,101C 237.624,100.229 241.957,101.729 245.5,105.5C 241.607,113.402 239.107,121.735 238,130.5C 236.34,141.102 235.34,151.769 235,162.5C 232.081,161.813 229.248,160.813 226.5,159.5C 226.167,156.667 225.833,153.833 225.5,151C 226.422,137.643 228.256,124.476 231,111.5C 217.766,125.971 209.932,142.971 207.5,162.5C 203.535,162.304 200.035,160.97 197,158.5C 196.778,151.159 197.111,143.826 198,136.5C 199.673,128.494 201.006,120.494 202,112.5C 190.262,127.311 182.262,143.978 178,162.5C 176.184,161.671 174.351,160.837 172.5,160C 171.116,155.676 171.616,151.509 174,147.5C 180.739,133.012 188.739,119.345 198,106.5C 200.063,104.266 202.229,102.266 204.5,100.5 Z"/></g>
<g><path style="opacity:0.96" fill="#ff6a6a" d="M 72.5,101.5 C 76.2017,102.343 79.2017,104.177 81.5,107C 70.9643,123.934 65.2976,142.267 64.5,162C 64,162.167 63.5,162.333 63,162.5C 58.3608,160.35 55.8608,156.683 55.5,151.5C 58.3826,133.852 64.0493,117.185 72.5,101.5 Z"/></g>
</svg>
